<svg width="1440" height="4570" preserveAspectRatio="none" viewBox="0 0 1440 4570" fill="none" xmlns="http://www.w3.org/2000/svg">
<g clip-path="url(#clip0_360_618)">
<rect width="1440" height="4570" fill="#F7F8FA"/>
<ellipse cx="385.594" cy="291.151" rx="581" ry="472" transform="rotate(-3.3507 385.594 291.151)" fill="url(#paint0_radial_360_618)" fill-opacity="0.2"/>
<ellipse cx="937.705" cy="2000.43" rx="581" ry="472" transform="rotate(-18.7102 937.705 2000.43)" fill="url(#paint1_radial_360_618)" fill-opacity="0.2"/>
<ellipse cx="549.705" cy="3798.43" rx="581" ry="472" transform="rotate(-18.7102 549.705 3798.43)" fill="url(#paint2_radial_360_618)" fill-opacity="0.2"/>
<ellipse cx="952.524" cy="961.972" rx="581" ry="388" transform="rotate(21.7934 952.524 961.972)" fill="url(#paint3_radial_360_618)" fill-opacity="0.15"/>
<ellipse cx="581.525" cy="3051.97" rx="581" ry="388" transform="rotate(21.7934 581.525 3051.97)" fill="url(#paint4_radial_360_618)" fill-opacity="0.15"/>
<path d="M120.56 1396.04C116.877 1396.04 113.453 1395.46 110.29 1394.28C107.17 1393.11 104.462 1391.47 102.165 1389.34C99.8683 1387.18 98.07 1384.64 96.77 1381.74C95.5133 1378.84 94.885 1375.67 94.885 1372.25C94.885 1368.78 95.5133 1365.62 96.77 1362.76C98.07 1359.86 99.8683 1357.34 102.165 1355.22C104.462 1353.05 107.17 1351.38 110.29 1350.21C113.453 1349.04 116.877 1348.46 120.56 1348.46C124.287 1348.46 127.71 1349.04 130.83 1350.21C133.95 1351.38 136.658 1353.05 138.955 1355.22C141.252 1357.34 143.028 1359.86 144.285 1362.76C145.585 1365.62 146.235 1368.78 146.235 1372.25C146.235 1375.67 145.585 1378.84 144.285 1381.74C143.028 1384.64 141.252 1387.18 138.955 1389.34C136.658 1391.47 133.95 1393.11 130.83 1394.28C127.71 1395.46 124.287 1396.04 120.56 1396.04ZM135.445 1406.51C133.322 1406.51 131.35 1406.29 129.53 1405.86C127.71 1405.47 125.933 1404.79 124.2 1403.84C122.51 1402.89 120.733 1401.57 118.87 1399.88C117.007 1398.23 114.927 1396.17 112.63 1393.7L128.49 1389.8C129.53 1391.4 130.418 1392.64 131.155 1393.5C131.892 1394.37 132.607 1394.98 133.3 1395.33C134.037 1395.67 134.86 1395.85 135.77 1395.85C138.023 1395.85 140.125 1394.87 142.075 1392.92L148.705 1400.72C145.455 1404.58 141.035 1406.51 135.445 1406.51ZM120.56 1383.62C121.99 1383.62 123.312 1383.36 124.525 1382.84C125.782 1382.32 126.865 1381.59 127.775 1380.63C128.728 1379.64 129.465 1378.45 129.985 1377.06C130.505 1375.63 130.765 1374.03 130.765 1372.25C130.765 1370.47 130.505 1368.89 129.985 1367.5C129.465 1366.07 128.728 1364.88 127.775 1363.93C126.865 1362.93 125.782 1362.17 124.525 1361.65C123.312 1361.13 121.99 1360.87 120.56 1360.87C119.13 1360.87 117.787 1361.13 116.53 1361.65C115.317 1362.17 114.233 1362.93 113.28 1363.93C112.37 1364.88 111.655 1366.07 111.135 1367.5C110.615 1368.89 110.355 1370.47 110.355 1372.25C110.355 1374.03 110.615 1375.63 111.135 1377.06C111.655 1378.45 112.37 1379.64 113.28 1380.63C114.233 1381.59 115.317 1382.32 116.53 1382.84C117.787 1383.36 119.13 1383.62 120.56 1383.62ZM166.168 1395.65C163.351 1395.65 160.794 1395.09 158.498 1393.96C156.244 1392.79 154.468 1390.99 153.168 1388.56C151.868 1386.09 151.218 1382.93 151.218 1379.07V1359.44H165.908V1376.54C165.908 1379.05 166.319 1380.81 167.143 1381.8C167.966 1382.8 169.093 1383.3 170.523 1383.3C171.389 1383.3 172.191 1383.08 172.928 1382.65C173.708 1382.17 174.336 1381.41 174.813 1380.37C175.289 1379.29 175.528 1377.88 175.528 1376.15V1359.44H190.218V1395H176.243V1384.73L179.038 1387.52C177.781 1390.3 175.983 1392.36 173.643 1393.7C171.346 1395 168.854 1395.65 166.168 1395.65ZM218.248 1395V1388.69L217.208 1387V1375.04C217.208 1373.31 216.667 1371.99 215.583 1371.08C214.543 1370.17 212.832 1369.71 210.448 1369.71C208.845 1369.71 207.22 1369.97 205.573 1370.49C203.927 1370.97 202.518 1371.64 201.348 1372.51L196.668 1362.82C198.748 1361.52 201.24 1360.53 204.143 1359.83C207.047 1359.14 209.885 1358.79 212.658 1358.79C218.768 1358.79 223.492 1360.16 226.828 1362.89C230.208 1365.62 231.898 1369.95 231.898 1375.89V1395H218.248ZM208.173 1395.65C205.27 1395.65 202.843 1395.15 200.893 1394.15C198.943 1393.16 197.47 1391.84 196.473 1390.19C195.477 1388.5 194.978 1386.64 194.978 1384.6C194.978 1382.3 195.563 1380.35 196.733 1378.75C197.903 1377.15 199.68 1375.93 202.063 1375.11C204.49 1374.29 207.545 1373.87 211.228 1373.87H218.638V1380.96H213.568C212.008 1380.96 210.86 1381.22 210.123 1381.74C209.43 1382.22 209.083 1382.95 209.083 1383.95C209.083 1384.77 209.387 1385.47 209.993 1386.03C210.643 1386.55 211.51 1386.81 212.593 1386.81C213.59 1386.81 214.5 1386.55 215.323 1386.03C216.19 1385.47 216.818 1384.6 217.208 1383.43L219.093 1387.78C218.53 1390.43 217.338 1392.4 215.518 1393.7C213.698 1395 211.25 1395.65 208.173 1395.65ZM238.247 1395V1346.77H252.937V1395H238.247ZM297.721 1395.65C293.691 1395.65 290.116 1394.87 286.996 1393.31C283.919 1391.71 281.492 1389.52 279.716 1386.74C277.939 1383.97 277.051 1380.79 277.051 1377.19C277.051 1373.59 277.939 1370.41 279.716 1367.63C281.492 1364.86 283.919 1362.69 286.996 1361.13C290.116 1359.57 293.691 1358.79 297.721 1358.79C301.751 1358.79 305.326 1359.57 308.446 1361.13C311.566 1362.69 313.992 1364.86 315.726 1367.63C317.502 1370.41 318.391 1373.59 318.391 1377.19C318.391 1380.79 317.502 1383.97 315.726 1386.74C313.992 1389.52 311.566 1391.71 308.446 1393.31C305.326 1394.87 301.751 1395.65 297.721 1395.65ZM297.721 1384.21C298.804 1384.21 299.779 1383.95 300.646 1383.43C301.512 1382.91 302.206 1382.13 302.726 1381.09C303.246 1380.01 303.506 1378.71 303.506 1377.19C303.506 1375.63 303.246 1374.35 302.726 1373.35C302.206 1372.31 301.512 1371.53 300.646 1371.01C299.779 1370.49 298.804 1370.23 297.721 1370.23C296.637 1370.23 295.662 1370.49 294.796 1371.01C293.929 1371.53 293.236 1372.31 292.716 1373.35C292.196 1374.35 291.936 1375.63 291.936 1377.19C291.936 1378.71 292.196 1380.01 292.716 1381.09C293.236 1382.13 293.929 1382.91 294.796 1383.43C295.662 1383.95 296.637 1384.21 297.721 1384.21ZM119.975 1474.65C116.898 1474.65 114.342 1474 112.305 1472.7C110.312 1471.36 108.838 1469.34 107.885 1466.65C106.932 1463.92 106.455 1460.46 106.455 1456.25C106.455 1451.96 106.888 1448.48 107.755 1445.79C108.665 1443.06 110.117 1441.04 112.11 1439.74C114.103 1438.44 116.725 1437.79 119.975 1437.79C123.095 1437.79 125.955 1438.55 128.555 1440.07C131.155 1441.54 133.235 1443.67 134.795 1446.44C136.355 1449.17 137.135 1452.44 137.135 1456.25C137.135 1460.07 136.355 1463.36 134.795 1466.13C133.235 1468.86 131.155 1470.97 128.555 1472.44C125.955 1473.91 123.095 1474.65 119.975 1474.65ZM96.25 1486.61V1438.44H110.225V1443.25L110.29 1456.25L110.94 1469.25V1486.61H96.25ZM116.465 1463.21C117.548 1463.21 118.523 1462.95 119.39 1462.43C120.257 1461.91 120.95 1461.13 121.47 1460.09C121.99 1459.05 122.25 1457.77 122.25 1456.25C122.25 1454.69 121.99 1453.39 121.47 1452.35C120.95 1451.31 120.257 1450.53 119.39 1450.01C118.523 1449.49 117.548 1449.23 116.465 1449.23C115.382 1449.23 114.407 1449.49 113.54 1450.01C112.673 1450.53 111.98 1451.31 111.46 1452.35C110.94 1453.39 110.68 1454.69 110.68 1456.25C110.68 1457.77 110.94 1459.05 111.46 1460.09C111.98 1461.13 112.673 1461.91 113.54 1462.43C114.407 1462.95 115.382 1463.21 116.465 1463.21ZM141.763 1474V1438.44H155.738V1449.17L153.463 1446.11C154.546 1443.34 156.279 1441.26 158.663 1439.87C161.046 1438.49 163.906 1437.79 167.243 1437.79V1450.79C166.593 1450.71 166.008 1450.64 165.488 1450.6C165.011 1450.56 164.513 1450.53 163.993 1450.53C161.783 1450.53 159.963 1451.12 158.533 1452.29C157.146 1453.42 156.453 1455.39 156.453 1458.2V1474H141.763ZM189.874 1474.65C185.844 1474.65 182.269 1473.87 179.149 1472.31C176.072 1470.71 173.646 1468.52 171.869 1465.74C170.092 1462.97 169.204 1459.79 169.204 1456.19C169.204 1452.59 170.092 1449.41 171.869 1446.63C173.646 1443.86 176.072 1441.69 179.149 1440.13C182.269 1438.57 185.844 1437.79 189.874 1437.79C193.904 1437.79 197.479 1438.57 200.599 1440.13C203.719 1441.69 206.146 1443.86 207.879 1446.63C209.656 1449.41 210.544 1452.59 210.544 1456.19C210.544 1459.79 209.656 1462.97 207.879 1465.74C206.146 1468.52 203.719 1470.71 200.599 1472.31C197.479 1473.87 193.904 1474.65 189.874 1474.65ZM189.874 1463.21C190.957 1463.21 191.932 1462.95 192.799 1462.43C193.666 1461.91 194.359 1461.13 194.879 1460.09C195.399 1459.01 195.659 1457.71 195.659 1456.19C195.659 1454.63 195.399 1453.35 194.879 1452.35C194.359 1451.31 193.666 1450.53 192.799 1450.01C191.932 1449.49 190.957 1449.23 189.874 1449.23C188.791 1449.23 187.816 1449.49 186.949 1450.01C186.082 1450.53 185.389 1451.31 184.869 1452.35C184.349 1453.35 184.089 1454.63 184.089 1456.19C184.089 1457.71 184.349 1459.01 184.869 1460.09C185.389 1461.13 186.082 1461.91 186.949 1462.43C187.816 1462.95 188.791 1463.21 189.874 1463.21ZM238.867 1474.65C235.617 1474.65 232.995 1474 231.002 1472.7C229.008 1471.4 227.557 1469.38 226.647 1466.65C225.78 1463.92 225.347 1460.44 225.347 1456.19C225.347 1451.99 225.823 1448.54 226.777 1445.85C227.73 1443.12 229.203 1441.11 231.197 1439.81C233.233 1438.47 235.79 1437.79 238.867 1437.79C241.987 1437.79 244.847 1438.53 247.447 1440C250.047 1441.48 252.127 1443.6 253.687 1446.37C255.247 1449.1 256.027 1452.38 256.027 1456.19C256.027 1460 255.247 1463.3 253.687 1466.07C252.127 1468.8 250.047 1470.92 247.447 1472.44C244.847 1473.91 241.987 1474.65 238.867 1474.65ZM215.142 1474V1425.77H229.832V1443.19L229.182 1456.19L229.117 1469.19V1474H215.142ZM235.357 1463.21C236.44 1463.21 237.415 1462.95 238.282 1462.43C239.148 1461.91 239.842 1461.13 240.362 1460.09C240.882 1459.01 241.142 1457.71 241.142 1456.19C241.142 1454.63 240.882 1453.35 240.362 1452.35C239.842 1451.31 239.148 1450.53 238.282 1450.01C237.415 1449.49 236.44 1449.23 235.357 1449.23C234.273 1449.23 233.298 1449.49 232.432 1450.01C231.565 1450.53 230.872 1451.31 230.352 1452.35C229.832 1453.35 229.572 1454.63 229.572 1456.19C229.572 1457.71 229.832 1459.01 230.352 1460.09C230.872 1461.13 231.565 1461.91 232.432 1462.43C233.298 1462.95 234.273 1463.21 235.357 1463.21ZM260.654 1474V1425.77H275.344V1474H260.654ZM301.485 1474.65C297.152 1474.65 293.36 1473.85 290.11 1472.24C286.904 1470.64 284.412 1468.45 282.635 1465.68C280.859 1462.86 279.97 1459.7 279.97 1456.19C279.97 1452.59 280.837 1449.41 282.57 1446.63C284.347 1443.86 286.752 1441.69 289.785 1440.13C292.862 1438.57 296.307 1437.79 300.12 1437.79C303.63 1437.79 306.859 1438.49 309.805 1439.87C312.795 1441.26 315.179 1443.32 316.955 1446.05C318.775 1448.78 319.685 1452.16 319.685 1456.19C319.685 1456.71 319.664 1457.29 319.62 1457.94C319.577 1458.55 319.534 1459.11 319.49 1459.63H292.125V1452.55H311.69L306.165 1454.43C306.165 1453.05 305.905 1451.88 305.385 1450.92C304.909 1449.93 304.237 1449.17 303.37 1448.65C302.504 1448.09 301.464 1447.8 300.25 1447.8C299.037 1447.8 297.975 1448.09 297.065 1448.65C296.199 1449.17 295.527 1449.93 295.05 1450.92C294.574 1451.88 294.335 1453.05 294.335 1454.43V1456.64C294.335 1458.16 294.639 1459.46 295.245 1460.54C295.852 1461.63 296.719 1462.45 297.845 1463.01C298.972 1463.53 300.337 1463.79 301.94 1463.79C303.587 1463.79 304.93 1463.58 305.97 1463.14C307.054 1462.71 308.18 1462.06 309.35 1461.19L317.02 1468.93C315.287 1470.79 313.142 1472.22 310.585 1473.22C308.072 1474.17 305.039 1474.65 301.485 1474.65ZM371.381 1437.79C374.068 1437.79 376.473 1438.36 378.596 1439.48C380.763 1440.57 382.453 1442.28 383.666 1444.62C384.923 1446.96 385.551 1449.99 385.551 1453.72V1474H370.861V1456.25C370.861 1454.04 370.493 1452.48 369.756 1451.57C369.02 1450.62 368.066 1450.14 366.896 1450.14C366.03 1450.14 365.25 1450.36 364.556 1450.79C363.863 1451.23 363.3 1451.92 362.866 1452.87C362.476 1453.78 362.281 1455.04 362.281 1456.64V1474H347.591V1456.25C347.591 1454.04 347.245 1452.48 346.551 1451.57C345.858 1450.62 344.883 1450.14 343.626 1450.14C342.76 1450.14 341.98 1450.36 341.286 1450.79C340.593 1451.23 340.03 1451.92 339.596 1452.87C339.206 1453.78 339.011 1455.04 339.011 1456.64V1474H324.321V1438.44H338.296V1448.65L335.436 1445.79C336.78 1443.1 338.578 1441.11 340.831 1439.81C343.085 1438.47 345.598 1437.79 348.371 1437.79C351.491 1437.79 354.243 1438.62 356.626 1440.26C359.053 1441.87 360.678 1444.42 361.501 1447.93L357.016 1447.22C358.316 1444.27 360.201 1441.98 362.671 1440.33C365.185 1438.64 368.088 1437.79 371.381 1437.79ZM413.439 1474V1467.69L412.399 1466V1454.04C412.399 1452.31 411.857 1450.99 410.774 1450.08C409.734 1449.17 408.022 1448.71 405.639 1448.71C404.035 1448.71 402.41 1448.97 400.764 1449.49C399.117 1449.97 397.709 1450.64 396.539 1451.51L391.859 1441.82C393.939 1440.52 396.43 1439.53 399.334 1438.83C402.237 1438.14 405.075 1437.79 407.849 1437.79C413.959 1437.79 418.682 1439.16 422.019 1441.89C425.399 1444.62 427.089 1448.95 427.089 1454.89V1474H413.439ZM403.364 1474.65C400.46 1474.65 398.034 1474.15 396.084 1473.15C394.134 1472.16 392.66 1470.84 391.664 1469.19C390.667 1467.5 390.169 1465.64 390.169 1463.6C390.169 1461.3 390.754 1459.35 391.924 1457.75C393.094 1456.15 394.87 1454.93 397.254 1454.11C399.68 1453.29 402.735 1452.87 406.419 1452.87H413.829V1459.96H408.759C407.199 1459.96 406.05 1460.22 405.314 1460.74C404.62 1461.22 404.274 1461.95 404.274 1462.95C404.274 1463.77 404.577 1464.47 405.184 1465.03C405.834 1465.55 406.7 1465.81 407.784 1465.81C408.78 1465.81 409.69 1465.55 410.514 1465.03C411.38 1464.47 412.009 1463.6 412.399 1462.43L414.284 1466.78C413.72 1469.43 412.529 1471.4 410.709 1472.7C408.889 1474 406.44 1474.65 403.364 1474.65ZM468.2 1474.65C465.123 1474.65 462.263 1473.91 459.62 1472.44C457.02 1470.97 454.94 1468.86 453.38 1466.13C451.82 1463.36 451.04 1460.07 451.04 1456.25C451.04 1452.44 451.82 1449.17 453.38 1446.44C454.94 1443.67 457.02 1441.54 459.62 1440.07C462.263 1438.55 465.123 1437.79 468.2 1437.79C471.493 1437.79 474.115 1438.44 476.065 1439.74C478.058 1441.04 479.488 1443.06 480.355 1445.79C481.265 1448.48 481.72 1451.96 481.72 1456.25C481.72 1460.46 481.243 1463.92 480.29 1466.65C479.336 1469.34 477.863 1471.36 475.87 1472.7C473.876 1474 471.32 1474.65 468.2 1474.65ZM471.71 1463.21C472.793 1463.21 473.768 1462.95 474.635 1462.43C475.501 1461.91 476.195 1461.13 476.715 1460.09C477.235 1459.05 477.495 1457.77 477.495 1456.25C477.495 1454.69 477.235 1453.39 476.715 1452.35C476.195 1451.31 475.501 1450.53 474.635 1450.01C473.768 1449.49 472.793 1449.23 471.71 1449.23C470.626 1449.23 469.651 1449.49 468.785 1450.01C467.918 1450.53 467.225 1451.31 466.705 1452.35C466.185 1453.39 465.925 1454.69 465.925 1456.25C465.925 1457.77 466.185 1459.05 466.705 1460.09C467.225 1461.13 467.918 1461.91 468.785 1462.43C469.651 1462.95 470.626 1463.21 471.71 1463.21ZM477.235 1486.61V1469.25L477.885 1456.25L477.95 1443.25V1438.44H491.925V1486.61H477.235ZM513.258 1474.65C510.441 1474.65 507.884 1474.09 505.588 1472.96C503.334 1471.79 501.558 1469.99 500.258 1467.56C498.958 1465.09 498.308 1461.93 498.308 1458.07V1438.44H512.998V1455.54C512.998 1458.05 513.409 1459.81 514.233 1460.8C515.056 1461.8 516.183 1462.3 517.613 1462.3C518.479 1462.3 519.281 1462.08 520.018 1461.65C520.798 1461.17 521.426 1460.41 521.903 1459.37C522.379 1458.29 522.618 1456.88 522.618 1455.15V1438.44H537.308V1474H523.333V1463.73L526.128 1466.52C524.871 1469.3 523.073 1471.36 520.733 1472.7C518.436 1474 515.944 1474.65 513.258 1474.65ZM563.453 1474.65C559.12 1474.65 555.328 1473.85 552.078 1472.24C548.872 1470.64 546.38 1468.45 544.603 1465.68C542.827 1462.86 541.938 1459.7 541.938 1456.19C541.938 1452.59 542.805 1449.41 544.538 1446.63C546.315 1443.86 548.72 1441.69 551.753 1440.13C554.83 1438.57 558.275 1437.79 562.088 1437.79C565.598 1437.79 568.827 1438.49 571.773 1439.87C574.763 1441.26 577.147 1443.32 578.923 1446.05C580.743 1448.78 581.653 1452.16 581.653 1456.19C581.653 1456.71 581.632 1457.29 581.588 1457.94C581.545 1458.55 581.502 1459.11 581.458 1459.63H554.093V1452.55H573.658L568.133 1454.43C568.133 1453.05 567.873 1451.88 567.353 1450.92C566.877 1449.93 566.205 1449.17 565.338 1448.65C564.472 1448.09 563.432 1447.8 562.218 1447.8C561.005 1447.8 559.943 1448.09 559.033 1448.65C558.167 1449.17 557.495 1449.93 557.018 1450.92C556.542 1451.88 556.303 1453.05 556.303 1454.43V1456.64C556.303 1458.16 556.607 1459.46 557.213 1460.54C557.82 1461.63 558.687 1462.45 559.813 1463.01C560.94 1463.53 562.305 1463.79 563.908 1463.79C565.555 1463.79 566.898 1463.58 567.938 1463.14C569.022 1462.71 570.148 1462.06 571.318 1461.19L578.988 1468.93C577.255 1470.79 575.11 1472.22 572.553 1473.22C570.04 1474.17 567.007 1474.65 563.453 1474.65ZM624.561 1474.65C620.531 1474.65 616.956 1473.87 613.836 1472.31C610.76 1470.71 608.333 1468.52 606.556 1465.74C604.78 1462.97 603.891 1459.79 603.891 1456.19C603.891 1452.59 604.78 1449.41 606.556 1446.63C608.333 1443.86 610.76 1441.69 613.836 1440.13C616.956 1438.57 620.531 1437.79 624.561 1437.79C628.591 1437.79 632.166 1438.57 635.286 1440.13C638.406 1441.69 640.833 1443.86 642.566 1446.63C644.343 1449.41 645.231 1452.59 645.231 1456.19C645.231 1459.79 644.343 1462.97 642.566 1465.74C640.833 1468.52 638.406 1470.71 635.286 1472.31C632.166 1473.87 628.591 1474.65 624.561 1474.65ZM624.561 1463.21C625.645 1463.21 626.62 1462.95 627.486 1462.43C628.353 1461.91 629.046 1461.13 629.566 1460.09C630.086 1459.01 630.346 1457.71 630.346 1456.19C630.346 1454.63 630.086 1453.35 629.566 1452.35C629.046 1451.31 628.353 1450.53 627.486 1450.01C626.62 1449.49 625.645 1449.23 624.561 1449.23C623.478 1449.23 622.503 1449.49 621.636 1450.01C620.77 1450.53 620.076 1451.31 619.556 1452.35C619.036 1453.35 618.776 1454.63 618.776 1456.19C618.776 1457.71 619.036 1459.01 619.556 1460.09C620.076 1461.13 620.77 1461.91 621.636 1462.43C622.503 1462.95 623.478 1463.21 624.561 1463.21ZM110.16 1553.65C107.127 1553.65 104.137 1553.33 101.19 1552.67C98.2433 1552.02 95.86 1551.18 94.04 1550.14L98.07 1540.45C99.76 1541.45 101.71 1542.23 103.92 1542.79C106.173 1543.36 108.362 1543.64 110.485 1543.64C112.262 1543.64 113.453 1543.49 114.06 1543.18C114.71 1542.88 115.035 1542.47 115.035 1541.95C115.035 1541.43 114.667 1541.06 113.93 1540.84C113.193 1540.58 112.218 1540.39 111.005 1540.26C109.792 1540.13 108.448 1539.98 106.975 1539.8C105.545 1539.59 104.093 1539.28 102.62 1538.89C101.147 1538.5 99.8033 1537.92 98.59 1537.14C97.3767 1536.36 96.4017 1535.32 95.665 1534.02C94.9283 1532.68 94.56 1530.99 94.56 1528.95C94.56 1526.7 95.2317 1524.66 96.575 1522.84C97.9617 1521.02 99.9983 1519.57 102.685 1518.48C105.415 1517.36 108.773 1516.79 112.76 1516.79C115.36 1516.79 117.96 1517.03 120.56 1517.51C123.16 1517.99 125.392 1518.72 127.255 1519.72L123.225 1529.4C121.405 1528.41 119.607 1527.74 117.83 1527.39C116.097 1527 114.472 1526.8 112.955 1526.8C111.092 1526.8 109.813 1526.98 109.12 1527.32C108.47 1527.67 108.145 1528.06 108.145 1528.49C108.145 1529.01 108.513 1529.4 109.25 1529.66C109.987 1529.92 110.962 1530.12 112.175 1530.25C113.388 1530.38 114.71 1530.55 116.14 1530.77C117.613 1530.94 119.065 1531.25 120.495 1531.68C121.968 1532.07 123.312 1532.65 124.525 1533.43C125.738 1534.21 126.713 1535.28 127.45 1536.62C128.187 1537.92 128.555 1539.59 128.555 1541.62C128.555 1543.75 127.883 1545.74 126.54 1547.6C125.197 1549.42 123.16 1550.9 120.43 1552.02C117.7 1553.11 114.277 1553.65 110.16 1553.65ZM152.633 1553.65C148.3 1553.65 144.508 1552.85 141.258 1551.24C138.051 1549.64 135.56 1547.45 133.783 1544.68C132.006 1541.86 131.118 1538.7 131.118 1535.19C131.118 1531.59 131.985 1528.41 133.718 1525.63C135.495 1522.86 137.9 1520.69 140.933 1519.13C144.01 1517.57 147.455 1516.79 151.268 1516.79C154.778 1516.79 158.006 1517.49 160.953 1518.87C163.943 1520.26 166.326 1522.32 168.103 1525.05C169.923 1527.78 170.833 1531.16 170.833 1535.19C170.833 1535.71 170.811 1536.29 170.768 1536.94C170.725 1537.55 170.681 1538.11 170.638 1538.63H143.273V1531.55H162.838L157.313 1533.43C157.313 1532.05 157.053 1530.88 156.533 1529.92C156.056 1528.93 155.385 1528.17 154.518 1527.65C153.651 1527.09 152.611 1526.8 151.398 1526.8C150.185 1526.8 149.123 1527.09 148.213 1527.65C147.346 1528.17 146.675 1528.93 146.198 1529.92C145.721 1530.88 145.483 1532.05 145.483 1533.43V1535.64C145.483 1537.16 145.786 1538.46 146.393 1539.54C147 1540.63 147.866 1541.45 148.993 1542.01C150.12 1542.53 151.485 1542.79 153.088 1542.79C154.735 1542.79 156.078 1542.58 157.118 1542.14C158.201 1541.71 159.328 1541.06 160.498 1540.19L168.168 1547.93C166.435 1549.79 164.29 1551.22 161.733 1552.22C159.22 1553.17 156.186 1553.65 152.633 1553.65ZM190.289 1553.65C187.472 1553.65 184.915 1553.09 182.619 1551.96C180.365 1550.79 178.589 1548.99 177.289 1546.56C175.989 1544.09 175.339 1540.93 175.339 1537.07V1517.44H190.029V1534.54C190.029 1537.05 190.44 1538.81 191.264 1539.8C192.087 1540.8 193.214 1541.3 194.644 1541.3C195.51 1541.3 196.312 1541.08 197.049 1540.65C197.829 1540.17 198.457 1539.41 198.934 1538.37C199.41 1537.29 199.649 1535.88 199.649 1534.15V1517.44H214.339V1553H200.364V1542.73L203.159 1545.52C201.902 1548.3 200.104 1550.36 197.764 1551.7C195.467 1553 192.975 1553.65 190.289 1553.65ZM259.452 1553.65C255.378 1553.65 251.76 1552.87 248.597 1551.31C245.433 1549.75 242.942 1547.58 241.122 1544.81C239.345 1541.99 238.457 1538.79 238.457 1535.19C238.457 1531.59 239.345 1528.41 241.122 1525.63C242.942 1522.86 245.433 1520.69 248.597 1519.13C251.76 1517.57 255.378 1516.79 259.452 1516.79C263.785 1516.79 267.49 1517.73 270.567 1519.59C273.643 1521.45 275.767 1524.03 276.937 1527.32L265.562 1532.91C264.825 1531.27 263.915 1530.08 262.832 1529.34C261.792 1528.6 260.643 1528.23 259.387 1528.23C258.303 1528.23 257.285 1528.49 256.332 1529.01C255.422 1529.53 254.685 1530.31 254.122 1531.35C253.602 1532.35 253.342 1533.63 253.342 1535.19C253.342 1536.75 253.602 1538.05 254.122 1539.09C254.685 1540.13 255.422 1540.91 256.332 1541.43C257.285 1541.95 258.303 1542.21 259.387 1542.21C260.643 1542.21 261.792 1541.84 262.832 1541.1C263.915 1540.37 264.825 1539.18 265.562 1537.53L276.937 1543.12C275.767 1546.41 273.643 1548.99 270.567 1550.86C267.49 1552.72 263.785 1553.65 259.452 1553.65ZM280.332 1553V1504.77H295.022V1553H280.332ZM301.533 1553V1517.44H316.223V1553H301.533ZM308.878 1514.58C306.192 1514.58 304.047 1513.87 302.443 1512.44C300.84 1511.01 300.038 1509.23 300.038 1507.11C300.038 1504.99 300.84 1503.21 302.443 1501.78C304.047 1500.35 306.192 1499.63 308.878 1499.63C311.565 1499.63 313.71 1500.31 315.313 1501.65C316.917 1502.99 317.718 1504.73 317.718 1506.85C317.718 1509.1 316.917 1510.97 315.313 1512.44C313.71 1513.87 311.565 1514.58 308.878 1514.58ZM342.364 1553.65C338.031 1553.65 334.239 1552.85 330.989 1551.24C327.783 1549.64 325.291 1547.45 323.514 1544.68C321.738 1541.86 320.849 1538.7 320.849 1535.19C320.849 1531.59 321.716 1528.41 323.449 1525.63C325.226 1522.86 327.631 1520.69 330.664 1519.13C333.741 1517.57 337.186 1516.79 340.999 1516.79C344.509 1516.79 347.738 1517.49 350.684 1518.87C353.674 1520.26 356.058 1522.32 357.834 1525.05C359.654 1527.78 360.564 1531.16 360.564 1535.19C360.564 1535.71 360.543 1536.29 360.499 1536.94C360.456 1537.55 360.413 1538.11 360.369 1538.63H333.004V1531.55H352.569L347.044 1533.43C347.044 1532.05 346.784 1530.88 346.264 1529.92C345.788 1528.93 345.116 1528.17 344.249 1527.65C343.383 1527.09 342.343 1526.8 341.129 1526.8C339.916 1526.8 338.854 1527.09 337.944 1527.65C337.078 1528.17 336.406 1528.93 335.929 1529.92C335.453 1530.88 335.214 1532.05 335.214 1533.43V1535.64C335.214 1537.16 335.518 1538.46 336.124 1539.54C336.731 1540.63 337.598 1541.45 338.724 1542.01C339.851 1542.53 341.216 1542.79 342.819 1542.79C344.466 1542.79 345.809 1542.58 346.849 1542.14C347.933 1541.71 349.059 1541.06 350.229 1540.19L357.899 1547.93C356.166 1549.79 354.021 1551.22 351.464 1552.22C348.951 1553.17 345.918 1553.65 342.364 1553.65ZM389.9 1516.79C392.63 1516.79 395.1 1517.36 397.31 1518.48C399.52 1519.57 401.254 1521.28 402.51 1523.62C403.81 1525.96 404.46 1528.99 404.46 1532.72V1553H389.77V1535.25C389.77 1533.04 389.38 1531.48 388.6 1530.57C387.82 1529.62 386.759 1529.14 385.415 1529.14C384.419 1529.14 383.487 1529.38 382.62 1529.86C381.797 1530.29 381.125 1531.03 380.605 1532.07C380.129 1533.11 379.89 1534.52 379.89 1536.3V1553H365.2V1517.44H379.175V1527.84L376.38 1524.85C377.767 1522.17 379.63 1520.15 381.97 1518.81C384.354 1517.47 386.997 1516.79 389.9 1516.79ZM428 1553.65C423.103 1553.65 419.29 1552.48 416.56 1550.14C413.83 1547.76 412.465 1544.12 412.465 1539.22V1509.45H427.155V1539.09C427.155 1540.17 427.437 1541.02 428 1541.62C428.607 1542.23 429.343 1542.53 430.21 1542.53C431.467 1542.53 432.572 1542.21 433.525 1541.56L437.035 1551.76C435.908 1552.41 434.543 1552.89 432.94 1553.2C431.38 1553.5 429.733 1553.65 428 1553.65ZM407.59 1530.12V1519.39H434.435V1530.12H407.59ZM459.415 1553.65C455.082 1553.65 451.29 1552.85 448.04 1551.24C444.833 1549.64 442.342 1547.45 440.565 1544.68C438.788 1541.86 437.9 1538.7 437.9 1535.19C437.9 1531.59 438.767 1528.41 440.5 1525.63C442.277 1522.86 444.682 1520.69 447.715 1519.13C450.792 1517.57 454.237 1516.79 458.05 1516.79C461.56 1516.79 464.788 1517.49 467.735 1518.87C470.725 1520.26 473.108 1522.32 474.885 1525.05C476.705 1527.78 477.615 1531.16 477.615 1535.19C477.615 1535.71 477.593 1536.29 477.55 1536.94C477.507 1537.55 477.463 1538.11 477.42 1538.63H450.055V1531.55H469.62L464.095 1533.43C464.095 1532.05 463.835 1530.88 463.315 1529.92C462.838 1528.93 462.167 1528.17 461.3 1527.65C460.433 1527.09 459.393 1526.8 458.18 1526.8C456.967 1526.8 455.905 1527.09 454.995 1527.65C454.128 1528.17 453.457 1528.93 452.98 1529.92C452.503 1530.88 452.265 1532.05 452.265 1533.43V1535.64C452.265 1537.16 452.568 1538.46 453.175 1539.54C453.782 1540.63 454.648 1541.45 455.775 1542.01C456.902 1542.53 458.267 1542.79 459.87 1542.79C461.517 1542.79 462.86 1542.58 463.9 1542.14C464.983 1541.71 466.11 1541.06 467.28 1540.19L474.95 1547.93C473.217 1549.79 471.072 1551.22 468.515 1552.22C466.002 1553.17 462.968 1553.65 459.415 1553.65ZM501.413 1566.26C499.68 1566.26 498.033 1566.11 496.473 1565.81C494.87 1565.5 493.505 1565.07 492.378 1564.51L495.888 1554.3C496.928 1554.86 498.033 1555.14 499.203 1555.14C500.07 1555.14 500.785 1554.82 501.348 1554.17C501.955 1553.52 502.258 1552.48 502.258 1551.05V1517.44H516.948V1551.18C516.948 1555.77 515.583 1559.44 512.853 1562.17C510.123 1564.9 506.31 1566.26 501.413 1566.26ZM509.603 1514.58C506.917 1514.58 504.772 1513.87 503.168 1512.44C501.565 1511.01 500.763 1509.23 500.763 1507.11C500.763 1504.99 501.565 1503.21 503.168 1501.78C504.772 1500.35 506.917 1499.63 509.603 1499.63C512.29 1499.63 514.435 1500.31 516.038 1501.65C517.642 1502.99 518.443 1504.73 518.443 1506.85C518.443 1509.1 517.642 1510.97 516.038 1512.44C514.435 1513.87 512.29 1514.58 509.603 1514.58ZM544.962 1553V1546.69L543.922 1545V1533.04C543.922 1531.31 543.381 1529.99 542.297 1529.08C541.257 1528.17 539.546 1527.71 537.162 1527.71C535.559 1527.71 533.934 1527.97 532.287 1528.49C530.641 1528.97 529.232 1529.64 528.062 1530.51L523.382 1520.82C525.462 1519.52 527.954 1518.53 530.857 1517.83C533.761 1517.14 536.599 1516.79 539.372 1516.79C545.482 1516.79 550.206 1518.16 553.542 1520.89C556.922 1523.62 558.612 1527.95 558.612 1533.89V1553H544.962ZM534.887 1553.65C531.984 1553.65 529.557 1553.15 527.607 1552.15C525.657 1551.16 524.184 1549.84 523.187 1548.19C522.191 1546.5 521.692 1544.64 521.692 1542.6C521.692 1540.3 522.277 1538.35 523.447 1536.75C524.617 1535.15 526.394 1533.93 528.777 1533.11C531.204 1532.29 534.259 1531.87 537.942 1531.87H545.352V1538.96H540.282C538.722 1538.96 537.574 1539.22 536.837 1539.74C536.144 1540.22 535.797 1540.95 535.797 1541.95C535.797 1542.77 536.101 1543.47 536.707 1544.03C537.357 1544.55 538.224 1544.81 539.307 1544.81C540.304 1544.81 541.214 1544.55 542.037 1544.03C542.904 1543.47 543.532 1542.6 543.922 1541.43L545.807 1545.78C545.244 1548.43 544.052 1550.4 542.232 1551.7C540.412 1553 537.964 1553.65 534.887 1553.65ZM534.237 1513.54L542.817 1503.14H556.792L543.987 1513.54H534.237ZM113.41 1632.65C108.513 1632.65 104.7 1631.48 101.97 1629.14C99.24 1626.76 97.875 1623.12 97.875 1618.22V1588.45H112.565V1618.09C112.565 1619.17 112.847 1620.02 113.41 1620.62C114.017 1621.23 114.753 1621.53 115.62 1621.53C116.877 1621.53 117.982 1621.21 118.935 1620.56L122.445 1630.76C121.318 1631.41 119.953 1631.89 118.35 1632.2C116.79 1632.5 115.143 1632.65 113.41 1632.65ZM93 1609.12V1598.39H119.845V1609.12H93ZM144.825 1632.65C140.492 1632.65 136.7 1631.85 133.45 1630.24C130.244 1628.64 127.752 1626.45 125.975 1623.68C124.199 1620.86 123.31 1617.7 123.31 1614.19C123.31 1610.59 124.177 1607.41 125.91 1604.63C127.687 1601.86 130.092 1599.69 133.125 1598.13C136.202 1596.57 139.647 1595.79 143.46 1595.79C146.97 1595.79 150.199 1596.49 153.145 1597.87C156.135 1599.26 158.519 1601.32 160.295 1604.05C162.115 1606.78 163.025 1610.16 163.025 1614.19C163.025 1614.71 163.004 1615.29 162.96 1615.94C162.917 1616.55 162.874 1617.11 162.83 1617.63H135.465V1610.55H155.03L149.505 1612.43C149.505 1611.05 149.245 1609.88 148.725 1608.92C148.249 1607.93 147.577 1607.17 146.71 1606.65C145.844 1606.09 144.804 1605.8 143.59 1605.8C142.377 1605.8 141.315 1606.09 140.405 1606.65C139.539 1607.17 138.867 1607.93 138.39 1608.92C137.914 1609.88 137.675 1611.05 137.675 1612.43V1614.64C137.675 1616.16 137.979 1617.46 138.585 1618.54C139.192 1619.63 140.059 1620.45 141.185 1621.01C142.312 1621.53 143.677 1621.79 145.28 1621.79C146.927 1621.79 148.27 1621.58 149.31 1621.14C150.394 1620.71 151.52 1620.06 152.69 1619.19L160.36 1626.93C158.627 1628.79 156.482 1630.22 153.925 1631.22C151.412 1632.17 148.379 1632.65 144.825 1632.65ZM177.101 1632L162.801 1596.44H177.881L188.736 1625.3H181.131L192.701 1596.44H206.611L192.311 1632H177.101ZM227.535 1632.65C223.202 1632.65 219.41 1631.85 216.16 1630.24C212.954 1628.64 210.462 1626.45 208.685 1623.68C206.909 1620.86 206.02 1617.7 206.02 1614.19C206.02 1610.59 206.887 1607.41 208.62 1604.63C210.397 1601.86 212.802 1599.69 215.835 1598.13C218.912 1596.57 222.357 1595.79 226.17 1595.79C229.68 1595.79 232.909 1596.49 235.855 1597.87C238.845 1599.26 241.229 1601.32 243.005 1604.05C244.825 1606.78 245.735 1610.16 245.735 1614.19C245.735 1614.71 245.714 1615.29 245.67 1615.94C245.627 1616.55 245.584 1617.11 245.54 1617.63H218.175V1610.55H237.74L232.215 1612.43C232.215 1611.05 231.955 1609.88 231.435 1608.92C230.959 1607.93 230.287 1607.17 229.42 1606.65C228.554 1606.09 227.514 1605.8 226.3 1605.8C225.087 1605.8 224.025 1606.09 223.115 1606.65C222.249 1607.17 221.577 1607.93 221.1 1608.92C220.624 1609.88 220.385 1611.05 220.385 1612.43V1614.64C220.385 1616.16 220.689 1617.46 221.295 1618.54C221.902 1619.63 222.769 1620.45 223.895 1621.01C225.022 1621.53 226.387 1621.79 227.99 1621.79C229.637 1621.79 230.98 1621.58 232.02 1621.14C233.104 1620.71 234.23 1620.06 235.4 1619.19L243.07 1626.93C241.337 1628.79 239.192 1630.22 236.635 1631.22C234.122 1632.17 231.089 1632.65 227.535 1632.65ZM257.974 1614.58C257.974 1613.28 258.169 1612.11 258.559 1611.07C258.992 1610.03 259.512 1609.1 260.119 1608.27C260.769 1607.45 261.44 1606.71 262.134 1606.06C262.87 1605.37 263.542 1604.72 264.149 1604.11C264.799 1603.51 265.319 1602.9 265.709 1602.29C266.142 1601.69 266.359 1601.06 266.359 1600.41C266.359 1599.41 265.925 1598.65 265.059 1598.13C264.235 1597.61 263.217 1597.35 262.004 1597.35C260.617 1597.35 259.317 1597.74 258.104 1598.52C256.89 1599.3 255.937 1600.39 255.244 1601.77L243.674 1595.99C245.32 1592.87 247.812 1590.33 251.149 1588.38C254.485 1586.43 258.754 1585.46 263.954 1585.46C267.377 1585.46 270.41 1585.94 273.054 1586.89C275.74 1587.8 277.864 1589.19 279.424 1591.05C280.984 1592.87 281.764 1595.14 281.764 1597.87C281.764 1599.52 281.504 1600.97 280.984 1602.23C280.507 1603.49 279.857 1604.59 279.034 1605.54C278.254 1606.45 277.43 1607.3 276.564 1608.08C275.697 1608.86 274.852 1609.6 274.029 1610.29C273.249 1610.94 272.599 1611.61 272.079 1612.3C271.602 1613 271.364 1613.76 271.364 1614.58H257.974ZM264.669 1632.65C262.155 1632.65 260.097 1631.89 258.494 1630.37C256.89 1628.81 256.089 1626.97 256.089 1624.85C256.089 1622.68 256.89 1620.86 258.494 1619.39C260.097 1617.92 262.155 1617.18 264.669 1617.18C267.225 1617.18 269.284 1617.92 270.844 1619.39C272.447 1620.86 273.249 1622.68 273.249 1624.85C273.249 1626.97 272.447 1628.81 270.844 1630.37C269.284 1631.89 267.225 1632.65 264.669 1632.65Z" fill="#F7F8FA"/>
</g>
<defs>
<radialGradient id="paint0_radial_360_618" cx="0" cy="0" r="1" gradientUnits="userSpaceOnUse" gradientTransform="translate(385.594 291.151) rotate(180) scale(494.324 401.585)">
<stop stop-color="#AB8B5D"/>
<stop offset="1" stop-color="#AB8B5D" stop-opacity="0"/>
</radialGradient>
<radialGradient id="paint1_radial_360_618" cx="0" cy="0" r="1" gradientUnits="userSpaceOnUse" gradientTransform="translate(937.705 2000.43) rotate(180) scale(494.324 401.585)">
<stop stop-color="#AB8B5D"/>
<stop offset="1" stop-color="#AB8B5D" stop-opacity="0"/>
</radialGradient>
<radialGradient id="paint2_radial_360_618" cx="0" cy="0" r="1" gradientUnits="userSpaceOnUse" gradientTransform="translate(549.705 3798.43) rotate(180) scale(494.324 401.585)">
<stop stop-color="#AB8B5D"/>
<stop offset="1" stop-color="#AB8B5D" stop-opacity="0"/>
</radialGradient>
<radialGradient id="paint3_radial_360_618" cx="0" cy="0" r="1" gradientUnits="userSpaceOnUse" gradientTransform="translate(952.524 961.972) rotate(180) scale(494.324 330.117)">
<stop stop-color="#AB8B5D"/>
<stop offset="1" stop-color="#AB8B5D" stop-opacity="0"/>
</radialGradient>
<radialGradient id="paint4_radial_360_618" cx="0" cy="0" r="1" gradientUnits="userSpaceOnUse" gradientTransform="translate(581.525 3051.97) rotate(180) scale(494.324 330.117)">
<stop stop-color="#AB8B5D"/>
<stop offset="1" stop-color="#AB8B5D" stop-opacity="0"/>
</radialGradient>
<clipPath id="clip0_360_618">
<rect width="1440" height="4570" fill="white"/>
</clipPath>
</defs>
</svg>
